<mxfile host="app.diagrams.net" modified="2023-10-17T05:09:19.264Z" agent="Mozilla/5.0 (Windows NT 10.0; Win64; x64; rv:109.0) Gecko/20100101 Firefox/118.0" etag="Q6teqL9jkBAD8j7-wYrv" version="22.0.4" type="github">
  <diagram name="Page-1" id="_SKS-4hRGqaAGGmXiamO">
    <mxGraphModel dx="880" dy="470" grid="1" gridSize="10" guides="1" tooltips="1" connect="1" arrows="1" fold="1" page="1" pageScale="1" pageWidth="850" pageHeight="1100" math="0" shadow="0">
      <root>
        <mxCell id="0" />
        <mxCell id="1" parent="0" />
        <mxCell id="SK-v_lb-zr1F76qbzs0p-3" value="" style="edgeStyle=orthogonalEdgeStyle;rounded=0;orthogonalLoop=1;jettySize=auto;html=1;" edge="1" parent="1" source="SK-v_lb-zr1F76qbzs0p-1" target="SK-v_lb-zr1F76qbzs0p-2">
          <mxGeometry relative="1" as="geometry" />
        </mxCell>
        <mxCell id="SK-v_lb-zr1F76qbzs0p-1" value="&lt;b&gt;START&lt;/b&gt;" style="rounded=1;whiteSpace=wrap;html=1;arcSize=50;" vertex="1" parent="1">
          <mxGeometry x="365" y="30" width="135" height="50" as="geometry" />
        </mxCell>
        <mxCell id="SK-v_lb-zr1F76qbzs0p-5" value="" style="edgeStyle=orthogonalEdgeStyle;rounded=0;orthogonalLoop=1;jettySize=auto;html=1;" edge="1" parent="1" source="SK-v_lb-zr1F76qbzs0p-2" target="SK-v_lb-zr1F76qbzs0p-4">
          <mxGeometry relative="1" as="geometry" />
        </mxCell>
        <mxCell id="SK-v_lb-zr1F76qbzs0p-2" value="&lt;div&gt;LA&lt;/div&gt;&lt;div&gt;a&lt;/div&gt;&lt;div&gt;t&lt;br&gt;&lt;/div&gt;" style="shape=parallelogram;perimeter=parallelogramPerimeter;whiteSpace=wrap;html=1;fixedSize=1;rounded=1;arcSize=19;" vertex="1" parent="1">
          <mxGeometry x="372.5" y="130" width="120" height="60" as="geometry" />
        </mxCell>
        <mxCell id="SK-v_lb-zr1F76qbzs0p-7" value="" style="edgeStyle=orthogonalEdgeStyle;rounded=0;orthogonalLoop=1;jettySize=auto;html=1;" edge="1" parent="1" source="SK-v_lb-zr1F76qbzs0p-4" target="SK-v_lb-zr1F76qbzs0p-6">
          <mxGeometry relative="1" as="geometry" />
        </mxCell>
        <mxCell id="SK-v_lb-zr1F76qbzs0p-4" value="La = 1/2 x a t" style="rhombus;whiteSpace=wrap;html=1;rounded=1;arcSize=0;" vertex="1" parent="1">
          <mxGeometry x="392.5" y="230" width="80" height="80" as="geometry" />
        </mxCell>
        <mxCell id="SK-v_lb-zr1F76qbzs0p-9" value="" style="edgeStyle=orthogonalEdgeStyle;rounded=0;orthogonalLoop=1;jettySize=auto;html=1;" edge="1" parent="1" source="SK-v_lb-zr1F76qbzs0p-6" target="SK-v_lb-zr1F76qbzs0p-8">
          <mxGeometry relative="1" as="geometry" />
        </mxCell>
        <mxCell id="SK-v_lb-zr1F76qbzs0p-6" value="1/2 x axt" style="whiteSpace=wrap;html=1;rounded=1;arcSize=0;" vertex="1" parent="1">
          <mxGeometry x="372.5" y="360" width="120" height="60" as="geometry" />
        </mxCell>
        <mxCell id="SK-v_lb-zr1F76qbzs0p-11" value="" style="edgeStyle=orthogonalEdgeStyle;rounded=0;orthogonalLoop=1;jettySize=auto;html=1;" edge="1" parent="1" source="SK-v_lb-zr1F76qbzs0p-8" target="SK-v_lb-zr1F76qbzs0p-10">
          <mxGeometry relative="1" as="geometry" />
        </mxCell>
        <mxCell id="SK-v_lb-zr1F76qbzs0p-8" value="la" style="shape=parallelogram;perimeter=parallelogramPerimeter;whiteSpace=wrap;html=1;fixedSize=1;rounded=1;arcSize=0;" vertex="1" parent="1">
          <mxGeometry x="372.5" y="480" width="120" height="60" as="geometry" />
        </mxCell>
        <mxCell id="SK-v_lb-zr1F76qbzs0p-10" value="END" style="whiteSpace=wrap;html=1;rounded=1;arcSize=50;" vertex="1" parent="1">
          <mxGeometry x="372.5" y="630" width="120" height="60" as="geometry" />
        </mxCell>
      </root>
    </mxGraphModel>
  </diagram>
</mxfile>
